<?xml version="1.0" standalone="no"?>
<!DOCTYPE svg PUBLIC "-//W3C//DTD SVG 20010904//EN"
 "http://www.w3.org/TR/2001/REC-SVG-20010904/DTD/svg10.dtd">
<svg version="1.0" xmlns="http://www.w3.org/2000/svg"
 width="1010.000000pt" height="1010.000000pt" viewBox="0 0 1010.000000 1010.000000"
 preserveAspectRatio="xMidYMid meet">
<metadata>
Created by potrace 1.11, written by Peter Selinger 2001-2013
</metadata>
<g transform="translate(0.000000,1010.000000) scale(0.100000,-0.100000)"
fill="#000000" stroke="none">
<path d="M0 8430 l0 -1670 470 0 470 0 0 1195 0 1195 1200 0 1200 0 0 475 0
475 -1670 0 -1670 0 0 -1670z"/>
<path d="M6760 9625 l0 -475 1195 0 1195 0 0 -1195 0 -1195 475 0 475 0 0
1670 0 1670 -1670 0 -1670 0 0 -475z"/>
<path d="M4938 8295 c-2 -1 -41 -5 -88 -9 -47 -3 -96 -8 -110 -10 -14 -3 -43
-7 -65 -11 -135 -19 -340 -73 -440 -116 -11 -4 -45 -18 -75 -30 -113 -47 -359
-187 -368 -210 -2 -5 -8 -9 -14 -9 -18 0 -185 -148 -264 -234 -229 -250 -373
-550 -410 -856 -7 -60 -7 -242 0 -332 34 -416 191 -736 507 -1035 95 -89 120
-110 250 -205 247 -179 603 -374 994 -543 288 -124 353 -153 480 -216 357
-176 569 -315 745 -489 180 -178 240 -308 244 -532 2 -98 -37 -263 -87 -369
-182 -382 -603 -584 -1197 -574 -91 2 -183 6 -205 9 -36 6 -111 20 -175 32
-14 3 -41 10 -60 16 -19 7 -39 13 -45 14 -74 15 -259 105 -360 174 -82 58
-202 172 -262 250 -24 30 -47 60 -52 66 -35 43 -117 191 -153 278 -46 111 -92
257 -103 330 -4 21 -9 48 -11 60 -3 11 -7 55 -10 96 -3 41 -8 78 -11 83 -5 8
-49 5 -116 -9 -12 -2 -38 -7 -57 -10 -50 -9 -167 -64 -236 -111 -228 -155
-345 -456 -297 -763 50 -315 273 -623 613 -845 246 -161 500 -258 860 -330 41
-8 75 -13 136 -20 33 -4 68 -9 79 -11 123 -23 726 -23 797 0 7 3 36 7 63 10
49 6 86 12 135 21 14 3 39 8 55 11 175 31 486 138 643 221 614 325 956 835
956 1423 -1 504 -213 919 -646 1263 -134 106 -286 206 -483 317 -127 72 -464
233 -940 450 -79 36 -360 176 -418 209 -395 222 -618 443 -701 697 -31 95 -39
152 -39 264 4 390 280 732 698 863 44 14 94 28 110 31 17 4 41 9 55 12 42 9
151 17 235 18 83 0 242 -11 253 -18 4 -2 28 -7 54 -10 68 -9 193 -53 268 -94
193 -104 327 -270 415 -512 15 -41 28 -82 30 -90 18 -78 37 -169 39 -185 24
-161 27 -194 31 -380 l5 -170 98 -2 c262 -4 467 97 599 296 39 58 88 168 97
213 2 15 7 31 9 36 3 4 8 26 11 50 3 23 9 61 12 85 19 137 0 319 -48 467 -32
99 -133 292 -168 320 -3 3 -13 15 -21 27 -27 39 -112 126 -174 178 -33 28 -62
52 -65 55 -11 13 -149 100 -210 133 -131 71 -407 171 -525 190 -16 3 -50 10
-75 15 -25 6 -63 13 -85 16 -23 4 -50 8 -60 10 -11 2 -49 7 -85 10 -36 4 -83
9 -105 12 -42 6 -451 14 -457 9z"/>
<path d="M0 1670 l0 -1670 1670 0 1670 0 0 470 0 470 -1200 0 -1200 0 0 1200
0 1200 -470 0 -470 0 0 -1670z"/>
<path d="M9150 2140 l0 -1200 -1195 0 -1195 0 0 -470 0 -470 1670 0 1670 0 0
1670 0 1670 -475 0 -475 0 0 -1200z"/>
</g>
</svg>
