<?xml version="1.0" encoding="utf-8"?>
<!-- Generator: Adobe Illustrator 19.1.0, SVG Export Plug-In . SVG Version: 6.00 Build 0)  -->
<svg version="1.1" id="Layer_1" xmlns="http://www.w3.org/2000/svg" xmlns:xlink="http://www.w3.org/1999/xlink" x="0px" y="0px"
	 viewBox="0 0 1810.5 349.1" style="enable-background:new 0 0 1810.5 349.1;" xml:space="preserve">
<style type="text/css">
	.st0{fill:#FFFFFF;}
</style>
<g>
	<path class="st0" d="M1810.5,315.5c-2.6,1.1-5.1,2.4-7.8,3.1c-12.7,3.6-25.4,7.7-38.3,10.3c-10,2-20.4,2.5-30.6,3.1
		c-14.9,0.9-29.9,1.9-44.8,1.9c-17.2,0-34.3-0.8-51.4-2c-14.5-1-29-2.7-43.4-4.9c-14.4-2.2-28.2-6.7-41-14c-5.4-3-11.4-4.9-16.7-8
		c-11.1-6.5-21.6-14-29.2-24.5c-7.5-10.2-14.5-20.7-21.7-31.1c-2.7-3.9-5-8.2-8.1-11.6c-1.8-2-5-3.1-7.7-4.1
		c-13.9-5.2-28.4-5.9-43-4.3c-19.2,2.2-37.4,8.1-55.1,15.7c-8.7,3.7-18,6.3-27,9.4c-6.8,2.3-12.2-1.2-17.5-4.6
		c-2.6-1.7-5-3.9-6.8-6.3c-2.8-3.7-5-2.4-8.3-0.6c-8,4.4-16.2,8.9-24.7,12.1c-11.7,4.4-22.5,0.7-32-6.6c-2.9-2.2-4.7-2.7-7.4,0.3
		c-7.3,7.8-8.4,6.2-18.6,10c-11,4.1-21.7,3.9-32-1.9c-4.8-2.7-11.7-12.9-18.2-22c-7.6-10.5-13.4-19.6-22.7-28.5
		c-2.2,2.6-5.2,5.6-7.5,9c-9,13.7-20.4,25.2-33.3,35.1c-6,4.6-16.4,4.1-22.7,0c-4.3-2.7-8.7-4.7-10.4-10.4c-0.9-2.9-4.4-2-6.2,0.1
		c-7.7,8.8-18.3,12.8-28.4,17.4c-6.6,3-13.4,5.9-20.4,7.2c-19.1,3.8-39.4-7.1-38-30c0.2-2.9,0.2-5.8,0.3-9.8
		c-6.5,2.2-12.2,4-17.8,6.2c-9.6,3.8-19,8.1-28.6,11.9c-3.5,1.4-7.5,3.1-11,2.6c-5.8-0.8-11.8-2.5-16.8-5.4c-5.3-2.9-8-8.5-8.4-14.8
		c-0.1-1.4-0.6-2.9-1.1-4.3c-0.8-2.5-2.3-3-4.5-1.5c-6.5,4.7-12.9,9.7-19.7,14.1c-4.8,3.1-9.8,6.6-15.2,7.8
		c-10.6,2.4-23.2-6-27.2-17c-3.5,3.1-7.2,5.9-10.4,9.1c-7.4,7.6-17.2,9.8-26.7,9.1c-6-0.4-11.9-4.8-17.5-8c-3.3-1.9-5.1-2.1-7.3,1
		c-6.5,9.1-14.7,16.5-25.8,19c-4.8,1.1-10.3-1.1-15.5-1.4c-6.8-0.4-11.4-4.6-14.8-9.6c-2-2.9-2.2-7.2-3-10.9c-0.4-1.9-0.4-3.8-0.7-7
		c-3.8,3-6.6,5.4-9.5,7.7c-3,2.3-6.1,4.5-9.3,6.6c-5.8,3.9-12.2,4.5-18.9,3c-2.6-0.6-5.4-1.2-7.8-0.7c-8.2,1.6-15.9-0.4-23.6-2.4
		c-7.9-2-13.1-7.4-15.8-15c-1-2.8-1.7-5.6-2.8-9.4c-1.5,2.3-2.8,3.8-3.5,5.5c-3.9,10.3-7.8,20.5-14.1,29.7
		c-4.7,6.9-14.7,10.7-23,9.5c-12.6-1.9-19.8-8.9-24.1-20.7c-3.1-8.5-6.5-16.7-6.8-25.9c-0.4-12.2-1.9-24.3-1.6-36.5
		c0.3-14.4,2.2-28.8,3.1-43.3c0.7-11.8,0.6-23.6,1.7-35.4c0.8-8.7,3-17.3,4.5-25.9c1-5.8,2.3-11.6,2.9-17.4c0.6-6.1,3.1-8.3,9.3-9.4
		c4.3-0.8,7.7-1.2,10,3.3c0.3,0.5,1.8,0.4,2.6,0.7c1,0.5,2.6,1,2.8,1.7c1.9,6.9,3.5,13.8,5.1,20.8c0.1,0.4-0.2,0.9-0.5,1.8
		c-1.1-0.6-1.9-1.2-3.7-2.2c-0.6,4-1.4,7.5-1.6,11.2c-0.4,6.2,0.6,12.6-4.9,17.5c-1.3,1.1-1.2,4-1.4,6.1c-1.7,22.3-3.7,44.6-4.8,67
		c-0.6,11.9-0.3,23.9,0.9,35.8c0.7,7.3,3.9,14.4,6.1,21.5c0.3,0.9,1.5,1.6,3.1,3.2c2.7-5.1,5.2-9.6,7.4-14.3
		c5.5-12,10.6-24.3,16.3-36.2c4.9-10.1,13.6-15.7,24.4-18.1c8.3-1.8,18,7,18.3,16.8c0.3,10.1,0,20.1,0.3,30.2
		c0.1,2.8,1.8,5.5,2.8,8.3c0.5,0,1,0,1.5,0c2.8-4.6,5.8-9,8.3-13.8c6.8-13.1,15.6-24.8,28.5-32c9.3-5.2,22.3-6.4,32.8,4.1
		c1.5,1.5,4.6,2.2,6.8,1.9c4.9-0.6,11.9,4,11.7,9.1c-0.2,5.7-1.5,11.3-2.3,16.9c-1,6.7-2,13.4-2.8,20.1c-0.2,1.3,0.7,2.7,1.4,4.8
		c10.1-8,18.2-16.8,24.6-27.1c4.8-7.7,8.7-15.8,10.3-24.8c0.4-2,0.4-4.1,0.8-6.2c1.3-7.6,7.8-7.9,13.4-9.5
		c12.2-3.3,18.3,5.7,16,16.3c-2.2,10.2-4,20.4-5.8,30.7c-0.3,1.9,0.5,3.9,0.8,5.9c0.6,0.3,1.1,0.5,1.7,0.8
		c6.1-5.4,12.4-10.8,18.4-16.3c2.8-2.6,5.4-5.4,7.8-8.4c5.4-6.4,12.7-7.5,20.2-6.8c2.6,0.2,6,3.5,7.2,6.1c1.7,4,1.5,8.8,2.5,13.2
		c0.5,2.3,1.9,4.4,2.8,6.6c1.8-0.8,3.8-1.5,5.5-2.6c11.2-7.1,20.9-16.3,34.4-19.9c14.9-4,23.1,4.8,25,16.1c0.5,3.1,1,6.2,1.6,9.3
		c1,4.7,3.4,5.6,7.9,4c14.5-5.3,29-10.9,43.8-15.3c6-1.8,12.9-1.3,19.2-0.8c6.5,0.5,12.5,10.3,12.1,17.9c-0.3,6.1,0.2,12.2,0.1,18.3
		c-0.1,3.1,1.5,4,4,3.4c6.4-1.5,13-2.7,19.1-5.1c9.8-3.8,19.3-8.2,28.8-12.6c3.3-1.5,6.4-3.5,9.5-5.3c0.7-0.4,1.5-1.3,2.1-1.1
		c9.3,1.9,10.8-6.8,15.1-11.4c5.2-5.7,8.9-12.9,14.7-17.8c4.9-4.1,12.1-5.2,18.4-2.1c3.4,1.7,5,0.7,7.2-1.6c5.6-6,5.2-11.3,1.5-18.9
		c-4.5-9.2-6.2-19.8-8.6-29.9c-3.9-23.3-0.5-1.9-4.2-25.2c-0.3-7.4-0.4-6-0.5-13.5c0.3-6,0.6-12.5,1.4-18.5
		c0.7-5.2,1.7-10.4,2.2-15.7c1.5-15,6.6-29.2,13.5-42.2c6.5-12.3,15.9-22.7,32.2-21.6c2.8,0.2,5.6-0.8,8.4-0.6
		c12.1,0.8,18.4,9.1,22.9,19c5.4,11.8,6.7,24.3,5.2,37.3c-3.2,20.7-5.8,23-10.2,38.9c-3.1,9.5-3.1,7.3-5.5,14.9
		c-5.7,16.4-1.1,2.6-6.2,18.6c-3.5,14.7-3.8,11.5-8.4,25.9c-2.4,7.7-5.9,15.2-8.8,22.8c-2.2,5.8,2.2,9.7,4.7,13.8
		c7.4,12.4,18,38.5,29.6,46.9c4,2.9,10.7,2.5,15.5-0.7c8.9-6,9.5-5,15.3-14c0.7-1,0.9-2.4,1-3.7c0.3-6.3-0.9-13,1-18.8
		c3.1-9.4,7.2-18.7,12.6-27c3.9-5.9,11.7-5.4,18.1-3.5c5.4,1.6,7.4,6.8,8.1,11.9c1.6,11.3-1.8,21.7-6.9,31.6
		c-4.3,8.4-3,14.7,5.5,18.5c2.9,1.3,7.9-0.6,11.4-2.3c13-6.1,24.1-14.8,33.3-25.9c3.5-4.2,17.7-4.8,22.6-1.5
		c3.4,2.3,5.3,11.7,3.4,17.1c-0.1,0.3-0.5,0.6-0.5,0.9c-0.1,2.5-0.1,5.1-0.1,7.6c2.2-0.3,4.5-0.3,6.6-1c15.1-4.9,30-10.4,45.3-14.6
		c16.1-4.4,32.6-6.3,49.3-5.4c13.3,0.7,26.3,3.2,38.4,9.2c10.6,5.3,18.4,13.7,24.6,23.9c6.7,11.1,13.3,22.3,21.3,32.4
		c9.6,12.2,22.9,19.9,37.6,24.6c12.9,4.2,26,8.1,39.2,10.7c13.1,2.5,26.6,3.8,40,4.5c24.5,1.2,49.1,1.8,73.6,2.2
		c11.5,0.2,23-0.8,34.5-1.2c3.1-0.1,6.2,0.1,9.3,0c9.6-0.2,19.2-0.7,28.7-0.7c5.2,0,10.4,1,15.6,1.6
		C1810.1,314.9,1810.3,315.2,1810.5,315.5z M1156.1,138.3c0.6,0,1.1,0,1.7,0c2-6.1,4.1-12.2,5.9-18.4c1.4-4.6,0.7-2,3.2-8.3
		c5.6-14,1.2-2.9,4.9-12.2c5.1-11.8,2.6-5.9,6.2-15.5c4.9-16.2,4.4-11.7,8.6-28.7c2-8.3,1.2-19.5-3.3-27.3c-1.7-3-4-3.9-7-2.4
		c-1.9,1-3.6,2.4-5,4c-9.8,11.3-12.6,25.8-16.7,39.5c-2.3,7.7-2.6,16.1-3,24.2c-0.7,15.9-0.1,17.8,1.8,34.2c1.8,9.2-2.7-17.7-1.3-8
		C1153.1,125.7,1154.8,132,1156.1,138.3z"/>
	<path class="st0" d="M312.9,162.7c-5.6-1.1-8.7-0.6-10.6,4.7c-1.1,3-4.7,5.6-7.7,7.5c-2.4,1.5-3.5,2.2-2.9,5.5
		c1.3,8.2,1.5,16.5,2.6,24.7c0.7,5.3,2.2,10.5,3.2,15.3c7.8-5.3,14.8-11.4,22.9-15.4c9.3-4.6,19.6-6.7,30.2-4.4
		c3.5,0.8,7.1,1.3,10.6,2.3c6.6,1.8,11,6.3,14.6,11.9c1.8,2.8,3.4,2.9,4.9-0.3c1.7-3.6,3.1-7.3,5.3-10.5c1.4-2.1,4.1-3.2,6.3-4.8
		c1.2,1.9,3.2,3.6,3.5,5.7c0.6,3.5-0.1,7.2,0.1,10.8c0.1,2.7-0.3,6.1,5.2,5.1c-1.9,5.3-3.6,10-5.1,14.7c-2.7,8-5.7,15.9-5.9,24.7
		c-0.1,2.9-4.3,7.2-7.5,8.2c-4.3,1.4-10.6,2-13.9-0.3c-4.7-3.2-6.3-9.1-6.3-15.8c-0.1-8.5-1.7-17.2-4.4-25.3c-2.2-6.4-9.5-6-15-5.4
		c-9.5,1.1-17.4,6.4-23.9,12.9c-4.8,4.8-8.5,10.7-12.3,16.4c-0.8,1.2-0.5,3.5,0.1,5.1c4.6,12.4,10.6,24.5,13.6,37.2
		c2.8,12.3,8.7,24.7,5.2,37.8c-1.2,4.8-3.3,9.7-6.2,13.6c-3.9,5.3-10.7,4.9-16.3,4.3c-11.2-1.3-17.5-8.7-22.4-18.5
		c-4-8.2-6.9-16.7-8.2-25.4c-2.5-16.2-0.3-32.1,4.3-47.9c1-3.6,0-8-0.7-11.9c-1-5.7-2.5-11.4-4-17c-0.4-1.6-1.4-3.1-2.6-5.6
		c-4.2,5.2-7.9,9.6-11.4,14.1c-5.1,6.4-9.9,8-17.8,5.8c-1.2-0.3-2.6-0.3-3.8-0.1c-5.7,0.7-10.3-2-12.5-7.4c-0.9-2.4-2.4-4.6-3.1-7.1
		c-1.6-5.3-5.4-5.2-8.9-3c-7,4.5-13.8,9.3-20.4,14.3c-11,8.3-23,12-36.7,9.5c-10.5-1.9-20-11.1-22.9-20.3c-2.2-7-3.7-14.1-5.8-22.3
		c-2.4,2.2-5,4.3-7.1,6.7c-10.4,11.9-20.5,24.1-31.1,35.9c-7.7,8.6-16,16.8-29,15.5c-10.6-1.1-19.4-4.8-26.1-14.2
		c-5.9-8.4-9.6-17.5-13-26.8c-1.9-5.4-1.7-11.4-3.2-17c-6.7-26.1-6.2-53.1-10-79.5c-1.4-9.9-4.6-19.4-6.4-29.3
		c-0.6-3.4-0.5-7.3,0.6-10.6C2.5,82,11.2,81.2,14.5,85c2.2,2.5,4.3,4,7.9,4.9c2.9,0.7,6.1,5.2,6.9,8.6c3.4,13.4,4.6,27.1,5.6,40.9
		c0.9,13.7,3,27.3,4.8,40.9c1.2,9.3,2.3,18.7,4.3,27.9c2.1,9.9,4.7,19.8,10.9,27.3c12.7-2.9,19.1-12.8,26.9-21.4
		c9.5-10.5,19.5-20.5,30.1-29.9c16.4-14.5,39.8-0.6,42.6,15.6c0.9,5.2,2,10.3,3.2,15.5c0.4,1.5,1.4,2.8,1.9,3.9
		c5.9-6.9,11.8-13.6,17.4-20.3c3.4-4.1,6.8-6.5,12.8-4.9c4.3,1.1,8.9,0.6,12.9,3.7c1.3,1,3.8,0.5,5.8,0.3c11-1.2,20.5,2.3,28.7,9.4
		c1.8,1.6,3.1,3.7,4.2,5.9c1.3,2.5,2.9,2.8,5,1.3c6.5-4.5,13.1-9,19.4-13.8c1-0.7,1.2-3,1-4.5c-1-9.3-2.7-18.6-3.2-27.9
		c-0.7-13.8,1.2-53.7,0.8-67.5c-0.6-18.4,6.2-34.7,14.9-50c5.2-9.1,12.2-9,24-4.8c11.3,4.1,13.8,14.2,16,24c2.9,12.8,1.4,52-0.7,65
		C317.4,144.1,314.9,153.2,312.9,162.7z M297.2,85.6c-6.4,15.3-7.8,57.4-7.1,74.4c1.8-1.1,3.5-1.6,3.7-2.4
		C297.1,142.4,300.9,101.1,297.2,85.6z M301.3,315c-1.3-5.3-2.5-10.6-3.9-16.5C294.2,302.2,296.4,312.4,301.3,315z"/>
	<path class="st0" d="M470.6,232.7c4.6-1.9,8.8-3.7,13-5.5c9.5-4.2,18.8-8.7,28.4-12.5c5.4-2.1,11.2-3.3,16.9-4.6
		c0.9-0.2,3,1.1,3.1,1.8c0.2,2.3,0.3,4.9-0.6,7c-4.3,9.7-13.6,13.9-21.9,19.1c-9,5.6-18,11.2-27.1,16.6c-7.2,4.3-14.5,8.6-22.1,12.1
		c-4.6,2.1-17.5,0.6-21.8-4.7c-3.4-4.2-4.2-8.7-2.5-13.3c1.7-4.7,4.6-9,6.9-13.6c4.6-9.3,9.9-18.3,9-29.5
		c-0.6-7.6-4.7-12.3-12.2-12.4c-5.8-0.1-11.7,0-17.3-1c-2.9-0.5-7-2.9-7.6-5.2c-0.7-2.8,0.8-7.1,2.9-9.7
		c8.8-10.9,26.3-11.8,38.1-3.9c5.2,3.5,11.9,5.3,14.8,11.6c1.6,3.4,2.9,7,3.7,10.6c0.6,3.1-0.2,6.5,0.4,9.7c1.7,9.1-2,17.1-4.1,25.5
		C470.3,231.1,470.4,231.5,470.6,232.7z"/>
	<path class="st0" d="M1020.6,136c0,0.1,0,0.8-0.3,1.2c-2.6,3.6-5.3,7.2-7.9,10.8c-1.4,2-0.7,3.8-1.8,5.9c-1.4,2.6-0.4,4.6,2.2,5.9
		c1.8,0.9,1.7,1.8,3,3.1c2.8,2.8,1.5,7.4-2,9.2c-2.8,1.5-5.3,0.3-7.7-0.6c-3.8-1.5-7.4-3.3-10.9-5.3c-2.8-1.6-4.7-9.2-2.4-12.3
		c1.4-1.9,2-4.4,3.1-6.6c3.2-6.2,8.5-10.2,14.5-13.4c1.8-1,3.7-2,5.6-2.5C1019.9,130.6,1020.8,131.6,1020.6,136z"/>
	<path class="st0" d="M396.7,147.3c1.3,2.3,2.8,4.4,3.9,6.8c0.6,1.3,0.9,3.2,0.5,4.5c-0.5,1.6-1.9,3-3,4.4c-0.5,0.6-1.6,1.6-1.7,1.5
		c-4.2-2.8-8.2,0.9-12.1,0.3c-1.4-0.2-3.3-2.1-3.7-3.5c-1.2-4.2-3.2-8.7,0.1-12.7c2.6-3.1,5.5-6.1,8.8-8.4
		C393.5,137.3,397.5,140.7,396.7,147.3z"/>
</g>
</svg>
