<?xml version="1.0" encoding="utf-8"?>
<!-- Generator: Adobe Illustrator 19.2.0, SVG Export Plug-In . SVG Version: 6.00 Build 0)  -->
<svg version="1.1" id="Layer_1" xmlns="http://www.w3.org/2000/svg" xmlns:xlink="http://www.w3.org/1999/xlink" x="0px" y="0px"
	 viewBox="0 0 1010 1010" style="enable-background:new 0 0 1010 1010;" xml:space="preserve">
<style type="text/css">
	.st0{fill:#DB9A2D;}
</style>
<g>
	<polygon class="st0" points="94,334 94,95 334,95 334,0 0,0 0,334 	"/>
	<polygon class="st0" points="676,95 915,95 915,334 1010,334 1010,0 676,0 	"/>
	<polygon class="st0" points="334,916 94,916 94,676 0,676 0,1010 334,1010 	"/>
	<polygon class="st0" points="915,676 915,916 676,916 676,1010 1010,1010 1010,676 	"/>
</g>
<g>
	<path class="st0" d="M322.4,342.9c0-67.9,65.3-149.9,186.2-149.9c122.8,0,180.9,58.1,180.9,118.4c0,54.6-34.4,68.8-58.1,68.8
		c0-109.5-49.6-146.4-122.8-146.4c-67.9,0-121.8,46.7-121.8,105.7c0,152.8,322.9,128.8,322.9,320.4c0,81.1-78.6,157.2-212.7,157.2
		c-136.7-0.3-196.6-72.6-196.6-122.1c0-55.6,47.7-63.4,47.7-63.4s12.3,140.1,158.8,140.1c118.4,0,138.6-76.7,138.6-105.1
		c0-30-3.5-74.2-146.4-134.1C340.1,465.4,322.4,404.8,322.4,342.9z"/>
	<path class="st0" d="M497,829.6c-144.3-0.3-209.3-79-209.3-134.8c0-52.4,38.1-72.6,58.2-75.9l13.4-2.2l1.2,13.6
		c0.5,5.2,13.4,128.6,146.2,128.6c124.5,0,125.9-88.7,125.9-92.5c0-24.1,0-64.3-138.7-122.5c-153.4-64.6-184.2-124.8-184.2-201
		c0-39.3,18.9-79.3,51.8-109.7c26.1-24.1,72.9-52.9,147-52.9c133.7,0,193.5,65.8,193.5,131c0,60.1-38.1,81.4-70.7,81.4h-12.6v-12.6
		c0-120-62.9-133.8-110.2-133.8c-61.2,0-109.2,40.9-109.2,93.1c0,63.9,65,93.6,140.4,127.9c85.5,39,182.5,83.1,182.5,192.5
		c0,45.3-21.6,87.5-60.8,118.9C619.9,812,563,829.6,497,829.6z M338,648.4c-2.3,1.2-4.7,2.7-7.1,4.6c-12,9.3-18,23.4-18,41.9
		c0,27.7,21.7,54.1,42.1,69.5c24,18.2,68.1,39.9,142,40c60.2,0,111.7-15.7,148.7-45.4c33.1-26.5,51.3-61.7,51.3-99.2
		c0-93.1-85.3-131.9-167.7-169.5c-76.3-34.7-155.2-70.7-155.2-150.9c0-66.4,59.1-118.4,134.5-118.4c85.7,0,131.1,48.7,135.1,144.8
		c14.2-3.8,33.1-16.1,33.1-54.5c0-52.6-52-105.7-168.2-105.7c-83.5,0-173.6,52.5-173.6,137.3c0,56.2,12.9,112.1,168.7,177.7
		C646,580.3,657.9,627.2,657.9,666.4c0,19.1-7.4,47.9-28,71.5c-26.8,30.7-68.2,46.2-123.2,46.2c-81.5,0-123.9-41.4-145.1-76.1
		C347.9,685.4,341.2,662.9,338,648.4z"/>
</g>
</svg>
