<?xml version="1.0" encoding="utf-8"?>
<!-- Generator: Adobe Illustrator 19.2.0, SVG Export Plug-In . SVG Version: 6.00 Build 0)  -->
<svg version="1.1" id="Layer_1" xmlns="http://www.w3.org/2000/svg" xmlns:xlink="http://www.w3.org/1999/xlink" x="0px" y="0px"
	 viewBox="0 0 853.9 287.6" style="enable-background:new 0 0 853.9 287.6;" xml:space="preserve">
<style type="text/css">
	.st0{fill:#FFFFFF;}
</style>
<g>
	<path class="st0" d="M7,83c0-21.5,20.7-47.5,59-47.5c38.9,0,57.3,18.4,57.3,37.5c0,17.3-10.9,21.8-18.4,21.8
		c0-34.7-15.7-46.4-38.9-46.4c-21.5,0-38.6,14.8-38.6,33.5c0,48.4,102.3,40.8,102.3,101.5c0,25.7-24.9,49.8-67.4,49.8
		C19,233.1,0,210.2,0,194.5c0-17.6,15.1-20.1,15.1-20.1s3.9,44.4,50.3,44.4c37.5,0,43.9-24.3,43.9-33.3c0-9.5-1.1-23.5-46.4-42.5
		C12.6,121.8,7,102.6,7,83z"/>
	<path class="st0" d="M385.8,48.6c0,14.3-9.2,14.3-13.1,14.3c0-7.8-1.4-24-22.1-24c-18.4,0-26.3,15.4-26.3,40.8v17.2h34.9
		c7.3,0,12.6,2.2,12.6,8.9c0,8.9-9.8,13.6-9.8,13.6c0-8.1-10.3-11.5-27.7-11.5h-10.1v97.4c0,8.1,3.7,16.6,16.2,16.6l0,0
		c3.2,0,5.8,2.6,5.8,5.8v1.2H263c-10.8,0-19.8-8.9-19.8-19.7v-5.6c-8,15.9-25,28.8-47.3,28.8c-33.5,0-45.7-19-45.7-43.6v-66
		c0-8.7-2.6-18.7-17.7-18.7c-1.2,0-2.3-0.5-3.1-1.3s-1.2-1.9-1.2-3.2v-2.7h21.6c9.8,0,18.4,6,18.4,19.5v63.2
		c0,28.5,10.1,41.1,30.2,41.1c25.4,0,44.8-28.2,44.8-57.6v-40.5c0-7.4,0.1-15.5-10.5-17.8c-3.8-0.8-6.4-3.8-6.4-7.8h19
		c14.5,0,16.8,11.4,16.8,15.8v92.8c0,7.8,3.3,16.4,16.4,16.4h12c12.3,0,15.5-9.4,15.5-16.6v-97.4h-22v-5.9c0-2.8,2.3-5.1,5.1-5.1
		l0,0c16.5,0,16.5-14.3,16.5-14.3c0-47.5,26.8-55.4,44.7-55.4C368.4,27.1,385.8,32.4,385.8,48.6z"/>
	<path class="st0" d="M458.7,197.3c0,0,11.7,1.6,11.7,11.1c0,14-13.4,23.5-34.2,23.5c-20.5,0-41.4-9.8-41.4-51.5V26.1
		c0-14.4-8.5-18.3-17-18.3h-0.7c-4.3,0-7.8-3.5-7.8-7.8v0h25.8c14.4,0,21.2,9.8,21.2,21.5v161.1c0,19.9,6.2,34.6,20.9,34.6
		C450.9,216.9,457.4,206.1,458.7,197.3z"/>
	<path class="st0" d="M598.1,96.7L598.1,96.7c0,3.7-2.3,7-5.7,8.2c-5.3,1.8-10,6.7-13.3,17.3c-5.3,16.8-19.8,58.4-37.5,107.9
		c-10.9,31-24.9,57.6-51.4,57.6c-22.4,0-31-13.1-31-23.5c0-13.7,15.4-15.7,15.4-15.7c0,10.9,2,27.4,17.6,27.4
		c19,0,27.4-33.5,32.7-47.2c-9.5,0-18.2-7.5-23.5-19.3c-9.8-21.8-22.1-59.8-31.3-84.4c-3.4-8.9-8.1-21-21-21c0-5.3,7-8.9,14.8-8.9
		c12.6,0,17.3,7,21.5,17.9c5.6,14.8,25.7,78,31.3,91.1c4.2,10.1,8.9,12.3,12.3,13.1c11.7-31.6,33-92.2,33-103.4
		c0-5.3-2.9-8.7-14.9-9.6c-3.9-0.3-6.9-3.6-6.9-7.5v0H598.1z"/>
	<path class="st0" d="M716.3,233.7c-10.1,0-19.6-9.2-29.6-28.2c-10.1-19-24.9-42.5-48.9-42.5h-12v43.3c0,8.7,3.4,15.1,11.2,15.1h0
		c3.9,0,7,3.1,7,7v0.3h-57.3v-0.6c0-3.7,3-6.7,6.7-6.7l0,0c5.3,0,13.7-3.6,13.7-15.4V56.1c0-8.9-2.2-16.8-12.6-16.8h-0.3
		c-4,0-7.3-3.3-7.3-7.3v0h15.9c20.4,0,22.9,12.9,22.9,24v94.5h12c18.4,0,29.4-12.3,40.8-29.4c1.4-2,3.1-6.1,3.1-9.2
		c0-4.8-4.5-8.1-9.8-8.4l0,0c-3.1,0-5.6-2.5-5.6-5.6v-1.4h57.9v2.2c0,2.6-2.1,4.8-4.8,4.8l0,0c-10.9,0-18.4,10.3-25.4,20.4
		c-7.8,11.2-16.2,23.5-30.2,31c5.6,1.1,19.8,9.8,33,33.5c15.7,28.2,24.3,33,34.7,33C731.4,228.9,725.3,233.7,716.3,233.7z"/>
	<path class="st0" d="M853.9,225.5v3.1h-14.3c-22.4,0-22.9-15.4-22.9-23.2v-42.8h-18.2c-34.4,0-54,7.8-54,30.5
		c0,18.2,14.3,26,26.3,26c18.7,0,26.6-12.6,26.6-12.6c1.1,0,5.9,3.6,5.9,7.8c0,5.9-2.8,16.2-33.3,16.2c-17.3,0-45-9.5-45-37.7
		c0-34.4,33-42.2,73.8-42.2h17.9v-13.1c0-12.6-0.6-35.8-31.6-35.8c-27.4,0-35.2,18.7-35.2,32.1c0,0-13.7-0.3-13.7-14.8
		c0-17.1,21-29.4,48.9-29.4c30.7,0,50.3,11.7,50.3,47.8v62.9c0,13.1,3.6,21,14.3,21l0,0C852,221.4,853.9,223.2,853.9,225.5z"/>
</g>
</svg>
