<?xml version="1.0" encoding="utf-8"?>
<!-- Generator: Adobe Illustrator 19.2.0, SVG Export Plug-In . SVG Version: 6.00 Build 0)  -->
<svg version="1.1" id="Layer_1" xmlns="http://www.w3.org/2000/svg" xmlns:xlink="http://www.w3.org/1999/xlink" x="0px" y="0px"
	 viewBox="0 0 1254.3 542.7" style="enable-background:new 0 0 1254.3 542.7;" xml:space="preserve">
<style type="text/css">
	.st0{fill:#D2A2DB;}
	.st1{fill:#FFFFFF;}
</style>
<g>
	<path class="st0" d="M8.9,106c0-27.5,26.4-60.7,75.3-60.7c49.7,0,73.2,23.5,73.2,47.9c0,22.1-13.9,27.8-23.5,27.8
		c0-44.3-20-59.2-49.7-59.2C56.8,61.8,35,80.7,35,104.6c0,61.8,130.6,52.1,130.6,129.6c0,32.8-31.8,63.6-86.1,63.6
		C24.3,297.6,0,268.4,0,248.4c0-22.5,19.3-25.7,19.3-25.7s5,56.7,64.2,56.7c47.9,0,56.1-31,56.1-42.5c0-12.1-1.4-30-59.2-54.3
		C16.1,155.5,8.9,131,8.9,106z"/>
	<path class="st0" d="M492.6,62.1c0,18.3-11.7,18.3-16.7,18.3c0-10-1.8-30.6-28.2-30.6c-23.5,0-33.6,19.7-33.6,52.1v22h44.6
		c9.3,0,16.1,2.8,16.1,11.4c0,11.4-12.5,17.4-12.5,17.4c0-10.3-13.2-14.7-35.4-14.7H414v124.4c0,10.3,4.7,21.2,20.7,21.2l0,0
		c4.1,0,7.4,3.3,7.4,7.4v1.5H335.8c-13.8,0-25.3-11.4-25.3-25.2V260c-10.2,20.3-31.9,36.8-60.4,36.8c-42.8,0-58.4-24.3-58.4-55.7
		v-84.3c0-11.1-3.3-23.9-22.6-23.9c-1.5,0-2.9-0.6-4-1.7c-1-1-1.5-2.4-1.5-4.1v-3.4h27.6c12.5,0,23.5,7.7,23.5,24.9v80.7
		c0,36.4,12.9,52.5,38.6,52.5c32.4,0,57.2-36,57.2-73.6v-51.7c0-9.4,0.1-19.8-13.4-22.7c-4.9-1-8.2-4.9-8.2-10h24.3
		c18.5,0,21.5,14.6,21.5,20.2v118.5c0,10,4.2,20.9,20.9,20.9h15.3c15.7,0,19.8-12,19.8-21.2V137.9h-28.1v-7.5c0-3.6,2.9-6.5,6.5-6.5
		l0,0c21.1,0,21.1-18.3,21.1-18.3c0-60.7,34.2-70.7,57.1-70.7C470.4,34.6,492.6,41.4,492.6,62.1z"/>
	<path class="st0" d="M585.7,251.9c0,0,14.9,2,14.9,14.2c0,17.9-17.1,30-43.7,30c-26.2,0-52.9-12.5-52.9-65.8v-197
		c0-18.4-10.9-23.4-21.7-23.4h-0.9c-5.5,0-10-4.5-10-10l0,0h32.9c18.4,0,27.1,12.5,27.1,27.5v205.7c0,25.4,7.9,44.2,26.7,44.2
		C575.8,277,584.1,263.2,585.7,251.9z"/>
	<path class="st0" d="M763.7,123.5L763.7,123.5c0,4.7-2.9,8.9-7.3,10.5c-6.8,2.3-12.8,8.6-17,22.1c-6.8,21.5-25.3,74.6-47.9,137.8
		c-13.9,39.6-31.8,73.6-65.6,73.6c-28.6,0-39.6-16.7-39.6-30c0-17.5,19.7-20,19.7-20c0,13.9,2.6,35,22.5,35
		c24.3,0,35-42.8,41.8-60.3c-12.1,0-23.2-9.6-30-24.6c-12.5-27.8-28.2-76.4-40-107.8C596,148.4,590,133,573.5,133
		c0-6.8,8.9-11.4,18.9-11.4c16.1,0,22.1,8.9,27.5,22.9c7.2,18.9,32.8,99.6,40,116.3c5.4,12.9,11.4,15.7,15.7,16.7
		c14.9-40.4,42.1-117.7,42.1-132c0-6.8-3.7-11.1-19-12.3c-5-0.4-8.8-4.6-8.8-9.6l0,0L763.7,123.5L763.7,123.5z"/>
	<path class="st0" d="M914.7,298.4c-12.9,0-25-11.7-37.8-36c-12.9-24.3-31.8-54.3-62.4-54.3h-15.3v55.3c0,11.1,4.3,19.3,14.3,19.3
		l0,0c5,0,8.9,4,8.9,8.9v0.4h-73.2v-0.8c0-4.7,3.8-8.6,8.6-8.6l0,0c6.8,0,17.5-4.6,17.5-19.7V71.6c0-11.4-2.8-21.5-16.1-21.5h-0.4
		c-5.1,0-9.3-4.2-9.3-9.3l0,0h20.3c26,0,29.2,16.5,29.2,30.6v120.7h15.3c23.5,0,37.5-15.7,52.1-37.5c1.8-2.6,4-7.8,4-11.7
		c0-6.1-5.7-10.3-12.5-10.7l0,0c-4,0-7.2-3.2-7.2-7.2v-1.8h73.9v2.8c0,3.3-2.7,6.1-6.1,6.1l0,0c-13.9,0-23.5,13.2-32.4,26
		c-10,14.3-20.7,30-38.6,39.6c7.2,1.4,25.3,12.5,42.1,42.8c20,36,31,42.1,44.3,42.1C933.9,292.3,926.1,298.4,914.7,298.4z"/>
	<path class="st0" d="M1090.4,287.9v4h-18.3c-28.6,0-29.2-19.7-29.2-29.6v-54.7h-23.2c-43.9,0-69,10-69,38.9
		c0,23.2,18.3,33.2,33.6,33.2c23.9,0,34-16.1,34-16.1c1.4,0,7.5,4.6,7.5,10c0,7.5-3.6,20.7-42.5,20.7c-22.1,0-57.5-12.1-57.5-48.1
		c0-43.9,42.1-53.9,94.2-53.9h22.9v-16.7c0-16.1-0.8-45.7-40.4-45.7c-35,0-44.9,23.9-44.9,41c0,0-17.5-0.4-17.5-18.9
		c0-21.8,26.8-37.5,62.4-37.5c39.2,0,64.2,14.9,64.2,61v80.3c0,16.7,4.6,26.8,18.3,26.8l0,0C1087.9,282.7,1090.4,285,1090.4,287.9z"
		/>
</g>
<g>
	<path class="st1" d="M12.3,412.8v29.6h0.2c0.7-1.9,1.6-3.5,2.9-4.9c1.2-1.4,2.7-2.6,4.3-3.6s3.3-1.7,5.2-2.2
		c1.9-0.5,3.7-0.7,5.6-0.7c3.9,0,7.4,0.7,10.3,2.2s5.3,3.5,7.3,6c1.9,2.5,3.4,5.4,4.3,8.7c0.9,3.3,1.4,6.8,1.4,10.5
		s-0.5,7.2-1.4,10.5s-2.4,6.2-4.3,8.7c-1.9,2.5-4.4,4.5-7.3,5.9c-2.9,1.4-6.3,2.2-10.3,2.2c-4.2,0-8-1-11.3-2.9s-5.7-4.7-7.2-8.3
		h-0.2v9.8H6v-71.4h6.3V412.8z M46.4,450.5c-0.6-2.6-1.6-5-3-7.1s-3.1-3.8-5.3-5.1c-2.1-1.3-4.7-2-7.7-2c-3.3,0-6.2,0.7-8.5,2
		s-4.2,3-5.6,5.1s-2.5,4.4-3.1,7.1c-0.6,2.6-1,5.3-1,8s0.3,5.3,1,8c0.6,2.6,1.7,5,3.1,7.1s3.3,3.8,5.6,5.1c2.3,1.3,5.1,2,8.5,2
		c3,0,5.6-0.6,7.7-2c2.1-1.3,3.9-3,5.3-5.1c1.4-2.1,2.4-4.4,3-7.1c0.6-2.6,1-5.3,1-8C47.3,455.7,47,453.1,46.4,450.5z"/>
	<path class="st1" d="M64.3,432.6l17,44l15.9-44h6.3L81.1,492c-0.9,2.2-1.8,4-2.6,5.5c-0.8,1.4-1.7,2.6-2.7,3.4s-2.1,1.4-3.4,1.8
		s-3,0.6-5,0.6c-1.3-0.1-2.3-0.1-3-0.2c-0.7,0-1.3-0.1-1.9-0.4v-5.3c0.7,0.1,1.5,0.2,2.2,0.4c0.7,0.1,1.4,0.1,2.2,0.1
		c1.4,0,2.6-0.2,3.5-0.6s1.7-1,2.4-1.7c0.7-0.7,1.2-1.6,1.7-2.6s1-2.1,1.5-3.3l2.2-5.8l-20.6-51.4h6.7V432.6z"/>
</g>
<g>
	<path class="st1" d="M1254.3,522.1c-1.6,0.7-3.1,1.5-4.8,1.9c-7.8,2.2-15.5,4.7-23.4,6.3c-6.1,1.2-12.5,1.5-18.7,1.9
		c-9.1,0.5-18.2,1.2-27.3,1.2c-10.5,0-20.9-0.5-31.4-1.2c-8.9-0.6-17.7-1.6-26.5-3c-8.8-1.3-17.2-4.1-25-8.5c-3.3-1.8-7-3-10.2-4.9
		c-6.8-4-13.2-8.5-17.8-15c-4.6-6.2-8.8-12.6-13.2-19c-1.6-2.4-3.1-5-4.9-7.1c-1.1-1.2-3.1-1.9-4.7-2.5c-8.5-3.2-17.3-3.6-26.2-2.6
		c-11.7,1.3-22.8,4.9-33.6,9.6c-5.3,2.3-11,3.8-16.5,5.7c-4.2,1.4-7.4-0.7-10.7-2.8c-1.6-1-3.1-2.4-4.2-3.8
		c-1.7-2.3-3.1-1.5-5.1-0.4c-4.9,2.7-9.9,5.4-15.1,7.4c-7.1,2.7-13.7,0.4-19.5-4c-1.8-1.3-2.9-1.6-4.5,0.2
		c-4.5,4.8-5.1,3.8-11.4,6.1c-6.7,2.5-13.2,2.4-19.5-1.2c-2.9-1.6-7.1-7.9-11.1-13.4c-4.6-6.4-8.2-12-13.9-17.4
		c-1.3,1.6-3.2,3.4-4.6,5.5c-5.5,8.4-12.5,15.4-20.3,21.4c-3.7,2.8-10,2.5-13.9,0c-2.6-1.6-5.3-2.9-6.3-6.3
		c-0.5-1.8-2.7-1.2-3.8,0.1c-4.7,5.4-11.2,7.8-17.3,10.6c-4,1.8-8.2,3.6-12.5,4.4c-11.7,2.3-24-4.3-23.2-18.3c0.1-1.8,0.1-3.5,0.2-6
		c-4,1.3-7.4,2.4-10.9,3.8c-5.9,2.3-11.6,4.9-17.5,7.3c-2.1,0.9-4.6,1.9-6.7,1.6c-3.5-0.5-7.2-1.5-10.3-3.3c-3.2-1.8-4.9-5.2-5.1-9
		c-0.1-0.9-0.4-1.8-0.7-2.6c-0.5-1.5-1.4-1.8-2.7-0.9c-4,2.9-7.9,5.9-12,8.6c-2.9,1.9-6,4-9.3,4.8c-6.5,1.5-14.2-3.7-16.6-10.4
		c-2.1,1.9-4.4,3.6-6.3,5.6c-4.5,4.6-10.5,6-16.3,5.6c-3.7-0.2-7.3-2.9-10.7-4.9c-2-1.2-3.1-1.3-4.5,0.6c-4,5.6-9,10.1-15.7,11.6
		c-2.9,0.7-6.3-0.7-9.5-0.9c-4.2-0.2-7-2.8-9-5.9c-1.2-1.8-1.3-4.4-1.8-6.7c-0.2-1.2-0.2-2.3-0.4-4.3c-2.3,1.8-4,3.3-5.8,4.7
		c-1.8,1.4-3.7,2.7-5.7,4c-3.5,2.4-7.4,2.7-11.5,1.8c-1.6-0.4-3.3-0.7-4.8-0.4c-5,1-9.7-0.2-14.4-1.5c-4.8-1.2-8-4.5-9.6-9.2
		c-0.6-1.7-1-3.4-1.7-5.7c-0.9,1.4-1.7,2.3-2.1,3.4c-2.4,6.3-4.8,12.5-8.6,18.1c-2.9,4.2-9,6.5-14,5.8c-7.7-1.2-12.1-5.4-14.7-12.6
		c-1.9-5.2-4-10.2-4.2-15.8c-0.2-7.4-1.2-14.8-1-22.3c0.2-8.8,1.3-17.6,1.9-26.4c0.4-7.2,0.4-14.4,1-21.6c0.5-5.3,1.8-10.6,2.7-15.8
		c0.6-3.5,1.4-7.1,1.8-10.6c0.4-3.7,1.9-5.1,5.7-5.7c2.6-0.5,4.7-0.7,6.1,2c0.2,0.3,1.1,0.2,1.6,0.4c0.6,0.3,1.6,0.6,1.7,1
		c1.2,4.2,2.1,8.4,3.1,12.7c0.1,0.2-0.1,0.5-0.3,1.1c-0.7-0.4-1.2-0.7-2.3-1.3c-0.4,2.4-0.9,4.6-1,6.8c-0.2,3.8,0.4,7.7-3,10.7
		c-0.8,0.7-0.7,2.4-0.9,3.7c-1,13.6-2.3,27.2-2.9,40.9c-0.4,7.3-0.2,14.6,0.5,21.9c0.4,4.5,2.4,8.8,3.7,13.1c0.2,0.5,0.9,1,1.9,2
		c1.6-3.1,3.2-5.9,4.5-8.7c3.4-7.3,6.5-14.8,9.9-22.1c3-6.2,8.3-9.6,14.9-11c5.1-1.1,11,4.3,11.2,10.3c0.2,6.2,0,12.3,0.2,18.4
		c0.1,1.7,1.1,3.4,1.7,5.1c0.3,0,0.6,0,0.9,0c1.7-2.8,3.5-5.5,5.1-8.4c4.2-8,9.5-15.1,17.4-19.5c5.7-3.2,13.6-3.9,20,2.5
		c0.9,0.9,2.8,1.3,4.2,1.2c3-0.4,7.3,2.4,7.1,5.6c-0.1,3.5-0.9,6.9-1.4,10.3c-0.6,4.1-1.2,8.2-1.7,12.3c-0.1,0.8,0.4,1.6,0.9,2.9
		c6.2-4.9,11.1-10.3,15-16.5c2.9-4.7,5.3-9.6,6.3-15.1c0.2-1.2,0.2-2.5,0.5-3.8c0.8-4.6,4.8-4.8,8.2-5.8c7.4-2,11.2,3.5,9.8,9.9
		c-1.3,6.2-2.4,12.5-3.5,18.7c-0.2,1.2,0.3,2.4,0.5,3.6c0.4,0.2,0.7,0.3,1,0.5c3.7-3.3,7.6-6.6,11.2-9.9c1.7-1.6,3.3-3.3,4.8-5.1
		c3.3-3.9,7.8-4.6,12.3-4.2c1.6,0.1,3.7,2.1,4.4,3.7c1,2.4,0.9,5.4,1.5,8.1c0.3,1.4,1.2,2.7,1.7,4c1.1-0.5,2.3-0.9,3.4-1.6
		c6.8-4.3,12.8-9.9,21-12.1c9.1-2.4,14.1,2.9,15.3,9.8c0.3,1.9,0.6,3.8,1,5.7c0.6,2.9,2.1,3.4,4.8,2.4c8.9-3.2,17.7-6.7,26.7-9.3
		c3.7-1.1,7.9-0.8,11.7-0.5c4,0.3,7.6,6.3,7.4,10.9c-0.2,3.7,0.1,7.4,0.1,11.2c-0.1,1.9,0.9,2.4,2.4,2.1c3.9-0.9,7.9-1.6,11.7-3.1
		c6-2.3,11.8-5,17.6-7.7c2-0.9,3.9-2.1,5.8-3.2c0.4-0.2,0.9-0.8,1.3-0.7c5.7,1.2,6.6-4.2,9.2-7c3.2-3.5,5.4-7.9,9-10.9
		c3-2.5,7.4-3.2,11.2-1.3c2.1,1,3.1,0.4,4.4-1c3.4-3.7,3.2-6.9,0.9-11.5c-2.7-5.6-3.8-12.1-5.2-18.2c-2.4-14.2-0.3-1.2-2.6-15.4
		c-0.2-4.5-0.2-3.7-0.3-8.2c0.2-3.7,0.4-7.6,0.9-11.3c0.4-3.2,1-6.3,1.3-9.6c0.9-9.2,4-17.8,8.2-25.8c4-7.5,9.7-13.9,19.7-13.2
		c1.7,0.1,3.4-0.5,5.1-0.4c7.4,0.5,11.2,5.6,14,11.6c3.3,7.2,4.1,14.8,3.2,22.8c-2,12.6-3.5,14-6.2,23.7c-1.9,5.8-1.9,4.5-3.4,9.1
		c-3.5,10-0.7,1.6-3.8,11.4c-2.1,9-2.3,7-5.1,15.8c-1.5,4.7-3.6,9.3-5.4,13.9c-1.3,3.5,1.3,5.9,2.9,8.4c4.5,7.6,11,23.5,18.1,28.6
		c2.4,1.8,6.5,1.5,9.5-0.4c5.4-3.7,5.8-3.1,9.3-8.5c0.4-0.6,0.5-1.5,0.6-2.3c0.2-3.8-0.5-7.9,0.6-11.5c1.9-5.7,4.4-11.4,7.7-16.5
		c2.4-3.6,7.1-3.3,11-2.1c3.3,1,4.5,4.2,4.9,7.3c1,6.9-1.1,13.2-4.2,19.3c-2.6,5.1-1.8,9,3.4,11.3c1.8,0.8,4.8-0.4,7-1.4
		c7.9-3.7,14.7-9,20.3-15.8c2.1-2.6,10.8-2.9,13.8-0.9c2.1,1.4,3.2,7.1,2.1,10.4c-0.1,0.2-0.3,0.4-0.3,0.5c-0.1,1.5-0.1,3.1-0.1,4.6
		c1.3-0.2,2.7-0.2,4-0.6c9.2-3,18.3-6.3,27.6-8.9c9.8-2.7,19.9-3.8,30.1-3.3c8.1,0.4,16.1,2,23.4,5.6c6.5,3.2,11.2,8.4,15,14.6
		c4.1,6.8,8.1,13.6,13,19.8c5.9,7.4,14,12.1,22.9,15c7.9,2.6,15.9,4.9,23.9,6.5c8,1.5,16.2,2.3,24.4,2.7c15,0.7,30,1.1,44.9,1.3
		c7,0.1,14-0.5,21.1-0.7c1.9-0.1,3.8,0.1,5.7,0c5.9-0.1,11.7-0.4,17.5-0.4c3.2,0,6.3,0.6,9.5,1
		C1254,521.7,1254.1,521.9,1254.3,522.1z M854.8,413.9c0.4,0,0.7,0,1,0c1.2-3.7,2.5-7.4,3.6-11.2c0.9-2.8,0.4-1.2,2-5.1
		c3.4-8.5,0.7-1.8,3-7.4c3.1-7.2,1.6-3.6,3.8-9.5c3-9.9,2.7-7.1,5.2-17.5c1.2-5.1,0.7-11.9-2-16.7c-1-1.8-2.4-2.4-4.3-1.5
		c-1.2,0.6-2.2,1.5-3.1,2.4c-6,6.9-7.7,15.7-10.2,24.1c-1.4,4.7-1.6,9.8-1.8,14.8c-0.4,9.7-0.1,10.9,1.1,20.9
		c1.1,5.6-1.6-10.8-0.8-4.9C853,406.2,854,410.1,854.8,413.9z"/>
	<path class="st1" d="M340.2,428.8c-3.4-0.7-5.3-0.4-6.5,2.9c-0.7,1.8-2.9,3.4-4.7,4.6c-1.5,0.9-2.1,1.3-1.8,3.4
		c0.8,5,0.9,10.1,1.6,15.1c0.4,3.2,1.3,6.4,2,9.3c4.8-3.2,9-7,14-9.4c5.7-2.8,12-4.1,18.4-2.7c2.1,0.5,4.3,0.8,6.5,1.4
		c4,1.1,6.7,3.8,8.9,7.3c1.1,1.7,2.1,1.8,3-0.2c1-2.2,1.9-4.5,3.2-6.4c0.9-1.3,2.5-2,3.8-2.9c0.7,1.2,2,2.2,2.1,3.5
		c0.4,2.1-0.1,4.4,0.1,6.6c0.1,1.6-0.2,3.7,3.2,3.1c-1.2,3.2-2.2,6.1-3.1,9c-1.6,4.9-3.5,9.7-3.6,15.1c-0.1,1.8-2.6,4.4-4.6,5
		c-2.6,0.9-6.5,1.2-8.5-0.2c-2.9-2-3.8-5.6-3.8-9.6c-0.1-5.2-1-10.5-2.7-15.4c-1.3-3.9-5.8-3.7-9.2-3.3c-5.8,0.7-10.6,3.9-14.6,7.9
		c-2.9,2.9-5.2,6.5-7.5,10c-0.5,0.7-0.3,2.1,0.1,3.1c2.8,7.6,6.5,15,8.3,22.7c1.7,7.5,5.3,15.1,3.2,23.1c-0.7,2.9-2,5.9-3.8,8.3
		c-2.4,3.2-6.5,3-9.9,2.6c-6.8-0.8-10.7-5.3-13.7-11.3c-2.4-5-4.2-10.2-5-15.5c-1.5-9.9-0.2-19.6,2.6-29.2c0.6-2.2,0-4.9-0.4-7.3
		c-0.6-3.5-1.5-7-2.4-10.4c-0.2-1-0.9-1.9-1.6-3.4c-2.6,3.2-4.8,5.9-7,8.6c-3.1,3.9-6,4.9-10.9,3.5c-0.7-0.2-1.6-0.2-2.3-0.1
		c-3.5,0.4-6.3-1.2-7.6-4.5c-0.5-1.5-1.5-2.8-1.9-4.3c-1-3.2-3.3-3.2-5.4-1.8c-4.3,2.7-8.4,5.7-12.5,8.7c-6.7,5.1-14,7.3-22.4,5.8
		c-6.4-1.2-12.2-6.8-14-12.4c-1.3-4.3-2.3-8.6-3.5-13.6c-1.5,1.3-3.1,2.6-4.3,4.1c-6.3,7.3-12.5,14.7-19,21.9
		c-4.7,5.2-9.8,10.3-17.7,9.5c-6.5-0.7-11.8-2.9-15.9-8.7c-3.6-5.1-5.9-10.7-7.9-16.4c-1.2-3.3-1-7-2-10.4
		c-4.1-15.9-3.8-32.4-6.1-48.5c-0.9-6-2.8-11.8-3.9-17.9c-0.4-2.1-0.3-4.5,0.4-6.5c0.9-2.9,6.2-3.4,8.2-1.1c1.3,1.5,2.6,2.4,4.8,3
		c1.8,0.4,3.7,3.2,4.2,5.2c2.1,8.2,2.8,16.5,3.4,25c0.5,8.4,1.8,16.7,2.9,25c0.7,5.7,1.4,11.4,2.6,17c1.3,6,2.9,12.1,6.7,16.7
		c7.8-1.8,11.7-7.8,16.4-13.1c5.8-6.4,11.9-12.5,18.4-18.2c10-8.9,24.3-0.4,26,9.5c0.5,3.2,1.2,6.3,2,9.5c0.2,0.9,0.9,1.7,1.2,2.4
		c3.6-4.2,7.2-8.3,10.6-12.4c2.1-2.5,4.2-4,7.8-3c2.6,0.7,5.4,0.4,7.9,2.3c0.8,0.6,2.3,0.3,3.5,0.2c6.7-0.7,12.5,1.4,17.5,5.7
		c1.1,1,1.9,2.3,2.6,3.6c0.8,1.5,1.8,1.7,3.1,0.8c4-2.7,8-5.5,11.8-8.4c0.6-0.4,0.7-1.8,0.6-2.7c-0.6-5.7-1.6-11.4-2-17
		c-0.4-8.4,0.7-32.8,0.5-41.2c-0.4-11.2,3.8-21.2,9.1-30.5c3.2-5.6,7.4-5.5,14.6-2.9c6.9,2.5,8.4,8.7,9.8,14.6
		c1.8,7.8,0.9,31.7-0.4,39.7C342.9,417.5,341.4,423,340.2,428.8z M330.6,381.8c-3.9,9.3-4.8,35-4.3,45.4c1.1-0.7,2.1-1,2.3-1.5
		C330.5,416.4,332.9,391.2,330.6,381.8z M333.1,521.8c-0.8-3.2-1.5-6.5-2.4-10.1C328.8,514,330.1,520.2,333.1,521.8z"/>
	<path class="st1" d="M436.4,471.5c2.8-1.2,5.4-2.3,7.9-3.4c5.8-2.6,11.5-5.3,17.3-7.6c3.3-1.3,6.8-2,10.3-2.8
		c0.5-0.1,1.8,0.7,1.9,1.1c0.1,1.4,0.2,3-0.4,4.3c-2.6,5.9-8.3,8.5-13.4,11.7c-5.5,3.4-11,6.8-16.5,10.1c-4.4,2.6-8.9,5.2-13.5,7.4
		c-2.8,1.3-10.7,0.4-13.3-2.9c-2.1-2.6-2.6-5.3-1.5-8.1c1-2.9,2.8-5.5,4.2-8.3c2.8-5.7,6-11.2,5.5-18c-0.4-4.6-2.9-7.5-7.4-7.6
		c-3.5-0.1-7.1,0-10.6-0.6c-1.8-0.3-4.3-1.8-4.6-3.2c-0.4-1.7,0.5-4.3,1.8-5.9c5.4-6.7,16.1-7.2,23.3-2.4c3.2,2.1,7.3,3.2,9,7.1
		c1,2.1,1.8,4.3,2.3,6.5c0.4,1.9-0.1,4,0.2,5.9c1,5.6-1.2,10.4-2.5,15.6C436.3,470.6,436.3,470.8,436.4,471.5z"/>
	<path class="st1" d="M772.1,412.5c0,0.1,0,0.5-0.2,0.7c-1.6,2.2-3.2,4.4-4.8,6.6c-0.9,1.2-0.4,2.3-1.1,3.6
		c-0.9,1.6-0.2,2.8,1.3,3.6c1.1,0.5,1,1.1,1.8,1.9c1.7,1.7,0.9,4.5-1.2,5.6c-1.7,0.9-3.2,0.2-4.7-0.4c-2.3-0.9-4.5-2-6.7-3.2
		c-1.7-1-2.9-5.6-1.5-7.5c0.9-1.2,1.2-2.7,1.9-4c2-3.8,5.2-6.2,8.9-8.2c1.1-0.6,2.3-1.2,3.4-1.5
		C771.7,409.2,772.3,409.8,772.1,412.5z"/>
	<path class="st1" d="M391.3,419.4c0.8,1.4,1.7,2.7,2.4,4.2c0.4,0.8,0.5,2,0.3,2.7c-0.3,1-1.2,1.8-1.8,2.7c-0.3,0.4-1,1-1,0.9
		c-2.6-1.7-5,0.5-7.4,0.2c-0.9-0.1-2-1.3-2.3-2.1c-0.7-2.6-2-5.3,0.1-7.8c1.6-1.9,3.4-3.7,5.4-5.1
		C389.4,413.3,391.8,415.4,391.3,419.4z"/>
</g>
</svg>
